<?xml version="1.0" standalone="no"?>
<!DOCTYPE svg PUBLIC "-//W3C//DTD SVG 20010904//EN"
 "http://www.w3.org/TR/2001/REC-SVG-20010904/DTD/svg10.dtd">
<svg version="1.0" xmlns="http://www.w3.org/2000/svg"
 width="512.000000pt" height="512.000000pt" viewBox="0 0 512.000000 512.000000"
 preserveAspectRatio="xMidYMid meet">
<metadata>
Created by potrace 1.14, written by Peter Selinger 2001-2017
</metadata>
<g transform="translate(0.000000,512.000000) scale(0.100000,-0.100000)"
fill="#000000" stroke="none">
<path d="M2477 4724 c-1 -1 -27 -5 -57 -9 -52 -6 -105 -16 -160 -29 -14 -4
-41 -9 -60 -12 -107 -17 -340 -86 -495 -147 -44 -17 -83 -35 -86 -40 -3 -5 -9
-8 -13 -8 -3 1 -8 0 -11 0 -3 -1 -8 -2 -12 -3 -12 -3 -144 -70 -183 -93 -19
-11 -53 -31 -76 -44 -178 -104 -434 -335 -553 -499 -34 -47 -69 -93 -77 -103
-8 -9 -14 -21 -14 -26 0 -5 -7 -14 -15 -21 -8 -7 -13 -16 -10 -20 3 -5 1 -10
-4 -12 -15 -6 -97 -169 -144 -288 -89 -223 -142 -455 -164 -710 -13 -162 -7
-526 12 -642 3 -16 7 -40 9 -55 15 -96 19 -113 26 -118 5 -3 23 21 41 52 18
32 37 63 41 68 5 6 38 53 74 105 36 52 71 100 77 105 7 6 28 30 48 55 40 49
173 186 231 237 29 26 103 83 193 151 34 25 96 62 105 62 5 0 10 3 10 8 0 7
171 92 280 140 47 20 143 52 220 73 25 7 50 14 55 16 10 3 144 29 195 37 14 2
25 5 25 6 0 2 180 12 250 13 47 1 69 6 68 14 -1 6 -11 46 -22 90 -12 43 -23
96 -26 118 -2 22 -7 51 -10 65 -27 126 -27 498 0 630 3 14 7 49 10 79 3 30 10
62 16 72 5 10 9 22 8 26 -1 4 -1 10 1 13 1 3 4 16 6 30 3 14 10 43 16 65 6 22
12 42 13 45 5 24 60 178 71 199 8 14 14 29 14 33 0 13 68 154 100 208 17 28
30 55 30 60 0 8 -46 11 -53 4z m-667 -473 c24 -24 28 -35 25 -68 -6 -59 -40
-129 -84 -172 -46 -45 -78 -54 -120 -33 -74 35 -54 167 37 246 7 6 21 18 30
27 39 37 76 37 112 0z m222 -113 c24 -31 26 -49 15 -122 -8 -53 -42 -120 -77
-149 -26 -22 -83 -25 -106 -6 -47 39 -55 115 -19 184 33 63 62 94 100 110 38
17 65 11 87 -17z m-521 -9 c32 -43 8 -177 -43 -240 -51 -61 -128 -57 -162 10
-18 35 -12 81 20 146 43 88 77 117 133 111 21 -2 41 -12 52 -27z m269 -277
c14 -10 33 -34 42 -53 16 -32 20 -55 33 -171 5 -49 38 -147 52 -157 15 -11 43
-60 43 -75 0 -30 -23 -65 -50 -76 -23 -9 -34 -8 -58 4 -17 9 -35 22 -39 29
-18 30 -76 46 -149 42 -92 -5 -121 10 -176 95 -49 73 -83 97 -151 104 -79 8
-108 36 -88 88 14 36 35 49 88 54 73 7 231 65 253 93 6 8 60 33 78 37 8 1 16
5 18 7 11 10 80 -4 104 -21z m341 -62 c71 -38 52 -218 -30 -287 -46 -39 -112
-28 -135 22 -20 42 -14 102 18 170 41 89 94 123 147 95z m-1028 -315 c11 -61
-88 -187 -147 -187 -37 0 -76 28 -76 56 0 62 55 135 124 167 35 15 43 16 67 4
15 -8 29 -25 32 -40z m-283 -25 c11 -11 20 -28 20 -37 0 -62 -54 -162 -97
-182 -51 -23 -105 14 -105 72 0 43 29 94 78 136 40 36 76 39 104 11z m418 -56
c53 -37 5 -180 -75 -227 -31 -18 -34 -18 -62 -1 -91 54 -16 219 109 243 3 1
16 -6 28 -15z m-263 -197 c61 -22 69 -40 72 -161 3 -135 4 -144 27 -194 22
-49 16 -83 -17 -101 -29 -16 -58 -4 -94 40 -25 29 -69 48 -118 50 -62 3 -83
18 -114 83 -16 33 -39 71 -50 83 -19 20 -77 43 -107 43 -14 0 -24 23 -24 51 0
36 34 52 112 55 40 1 80 4 88 6 30 8 95 30 115 38 48 20 70 22 110 7z m314
-123 c33 -31 1 -154 -52 -203 -31 -28 -80 -31 -108 -5 -42 38 1 165 70 211 36
24 63 23 90 -3z"/>
<path d="M2644 4712 c-13 -9 -84 -129 -84 -143 0 -5 -4 -9 -10 -9 -5 0 -10 -9
-10 -20 0 -11 -4 -20 -8 -20 -4 0 -8 -10 -9 -22 -1 -11 -6 -24 -11 -27 -7 -5
-64 -150 -68 -171 0 -3 -10 -36 -21 -75 -20 -67 -30 -107 -39 -150 -2 -11 -6
-31 -9 -45 -3 -14 -8 -38 -10 -53 -2 -15 -7 -44 -10 -65 -12 -85 -18 -186 -18
-332 -1 -143 10 -336 19 -351 2 -4 6 -24 9 -45 2 -22 9 -61 15 -89 6 -27 12
-63 15 -79 2 -16 8 -33 12 -37 5 -4 51 -10 103 -14 52 -3 109 -8 125 -10 17
-3 47 -7 69 -10 21 -2 47 -7 56 -10 23 -7 61 -16 80 -19 9 -1 20 -5 26 -8 6
-4 21 -9 35 -12 13 -2 57 -18 96 -35 84 -35 79 -39 108 74 27 105 123 346 165
415 5 8 32 52 59 98 153 251 392 472 641 589 58 28 131 58 163 68 32 9 57 19
55 20 -9 8 -228 154 -246 164 -23 12 -17 15 -147 -59 -140 -79 -343 -240 -485
-385 -58 -58 -121 -117 -140 -129 -153 -100 -359 -38 -446 134 -25 50 -27 65
-27 155 0 139 13 241 42 345 26 92 45 138 98 244 30 59 51 111 48 115 -9 8
-229 11 -241 3z"/>
<path d="M3099 4466 c-2 -2 -22 -6 -44 -9 -22 -3 -51 -9 -65 -13 -43 -12 -120
-77 -148 -124 -28 -47 -29 -52 -38 -114 -3 -22 -6 -42 -7 -45 0 -3 3 -24 8
-46 4 -22 9 -44 10 -50 7 -54 88 -142 159 -173 178 -79 386 35 415 227 13 90
-19 188 -84 256 -32 34 -139 89 -158 82 -7 -2 -19 -1 -28 4 -9 5 -18 7 -20 5z"/>
<path d="M4215 4060 c-250 -90 -569 -328 -730 -545 -17 -22 -33 -42 -36 -45
-3 -3 -29 -44 -58 -92 -45 -75 -134 -285 -236 -556 -15 -41 -33 -76 -41 -79
-7 -3 -42 4 -76 16 -70 22 -182 52 -213 56 -11 1 -33 5 -50 9 -58 12 -80 16
-130 22 -27 3 -66 8 -85 11 -60 9 -442 11 -505 3 -33 -5 -80 -11 -105 -14 -25
-3 -56 -8 -70 -11 -299 -58 -489 -133 -710 -280 -98 -65 -106 -71 -204 -158
-147 -129 -299 -306 -435 -507 -142 -210 -148 -233 -69 -265 144 -58 433 -134
583 -151 27 -4 53 -8 56 -10 11 -6 195 -17 294 -17 116 -1 255 10 325 23 30 6
66 13 80 16 280 53 591 214 849 439 169 148 396 426 501 613 13 23 29 42 34
42 6 0 54 -22 106 -49 115 -59 237 -119 268 -132 12 -5 32 -13 45 -19 31 -14
195 -60 237 -67 19 -3 42 -7 50 -8 14 -3 68 -10 145 -20 72 -10 329 -3 395 10
14 2 43 7 65 10 51 7 70 10 160 30 59 12 214 59 237 71 38 20 50 45 35 74 -17
33 -48 38 -136 23 -42 -8 -84 -12 -95 -11 -14 2 -28 32 -60 133 -37 115 -41
133 -29 155 27 52 13 100 -38 135 -33 24 -54 58 -65 110 -1 6 -32 100 -69 210
-37 110 -68 205 -70 210 -1 6 -5 17 -8 25 -3 8 -27 80 -52 160 -26 80 -58 176
-71 213 -13 38 -24 74 -24 82 0 7 20 21 44 30 48 18 68 48 55 82 -14 37 -39
43 -94 23z m-65 -325 c23 -71 45 -139 50 -150 5 -11 58 -172 119 -357 96 -297
108 -342 100 -372 -12 -43 0 -76 40 -112 16 -14 33 -40 37 -58 3 -17 9 -35 12
-41 4 -5 7 -14 8 -20 3 -17 45 -139 54 -155 5 -9 5 -21 2 -27 -8 -12 -102 -30
-206 -39 l-62 -5 -16 38 c-16 35 -43 108 -113 298 -14 39 -30 79 -35 90 -15
32 -109 278 -112 295 -2 8 -5 17 -8 20 -12 12 -41 110 -35 120 28 46 8 120
-40 146 -30 16 -40 32 -75 124 -22 58 -45 113 -50 122 -13 23 -13 48 0 48 6 0
20 9 32 20 54 50 239 163 250 152 4 -4 25 -65 48 -137z m-389 -240 c40 -99 42
-110 35 -170 -4 -37 15 -77 46 -97 27 -18 36 -35 78 -148 17 -47 35 -94 40
-105 5 -11 28 -69 51 -130 22 -60 67 -178 100 -262 32 -83 59 -156 59 -162 0
-15 -197 -14 -210 2 -6 6 -51 67 -100 134 -75 100 -90 127 -90 158 0 61 -43
115 -92 115 -13 0 -44 33 -78 83 -14 20 -28 37 -32 37 -5 0 -8 5 -8 11 0 6
-31 52 -70 102 -38 50 -70 99 -70 109 0 42 107 220 195 322 77 91 89 104 98
102 5 -1 26 -46 48 -101z m-357 -510 c8 -11 44 -59 80 -108 73 -97 88 -121 85
-140 -6 -51 28 -100 79 -110 16 -4 37 -20 51 -41 13 -20 33 -47 45 -61 12 -14
30 -39 40 -56 18 -30 18 -31 0 -26 -11 3 -39 11 -64 17 -24 7 -65 21 -90 32
-57 24 -383 188 -392 197 -4 3 4 29 17 57 13 28 25 60 27 70 2 10 6 21 9 24 3
3 21 50 39 104 30 90 34 98 46 80 8 -10 20 -28 28 -39z m-873 -240 c135 -14
139 -15 262 -40 99 -20 157 -38 157 -47 0 -4 -12 -11 -27 -14 -16 -4 -44 -14
-63 -23 -19 -8 -37 -15 -40 -16 -16 -3 -58 -18 -75 -25 -30 -14 -158 -61 -175
-65 -8 -2 -28 -9 -45 -16 -16 -6 -36 -13 -44 -15 -12 -2 -109 32 -186 65 -18
8 -125 49 -280 106 -91 34 -139 55 -134 59 2 2 27 7 54 11 28 4 61 9 75 11 14
2 63 7 110 10 47 4 86 7 87 8 6 5 268 -3 324 -9z m-581 -187 c306 -117 314
-120 333 -125 9 -3 17 -8 17 -12 0 -5 -78 -37 -115 -47 -20 -6 -211 -76 -240
-89 -16 -7 -48 -18 -70 -25 -22 -7 -44 -16 -50 -19 -10 -8 -36 -7 -145 3 -36
4 -87 9 -115 11 -27 3 -72 7 -100 10 -27 2 -81 7 -120 10 -38 3 -81 8 -95 10
-26 4 -175 17 -197 18 -20 1 -15 13 10 30 12 8 36 27 52 41 117 104 410 262
520 282 16 3 31 7 33 9 2 2 25 -6 50 -17 26 -11 130 -51 232 -90z m1063 -25
c-33 -53 -106 -158 -120 -173 -7 -8 -34 -42 -60 -75 -95 -120 -234 -260 -333
-335 -19 -14 -45 -34 -59 -46 -22 -18 -98 -69 -166 -111 -48 -30 -115 -63
-115 -56 0 5 15 34 33 65 18 32 77 137 131 235 55 98 109 194 120 213 10 19
29 53 41 74 18 35 59 67 91 73 11 2 235 84 364 134 93 35 94 35 73 2z m-720
-320 c-30 -54 -65 -116 -76 -138 -12 -22 -23 -42 -26 -45 -4 -3 -13 -18 -22
-35 -26 -48 -81 -147 -102 -185 -11 -19 -33 -60 -49 -90 -17 -30 -31 -56 -33
-58 -1 -1 -65 -14 -141 -27 -186 -34 -182 -33 -236 -40 l-48 -7 39 69 c21 37
66 122 101 188 100 191 143 269 154 280 6 6 108 46 226 88 118 43 224 82 235
87 11 5 23 9 27 9 3 1 -18 -43 -49 -96z m-1223 -27 c36 -4 99 -8 140 -11 41
-3 98 -8 125 -11 80 -10 97 -12 148 -13 26 -1 47 -5 47 -9 0 -5 -96 -43 -212
-86 -117 -42 -222 -81 -233 -86 -11 -5 -103 -39 -205 -75 -102 -37 -193 -71
-203 -77 -49 -26 -29 12 88 167 167 222 160 215 204 210 20 -1 65 -6 101 -9z
m569 -213 c-28 -54 -60 -113 -71 -130 -11 -18 -16 -33 -11 -33 4 0 4 -4 -2 -8
-5 -4 -17 -20 -26 -37 -9 -16 -35 -66 -59 -110 -23 -44 -46 -84 -50 -88 -14
-15 -246 -3 -365 19 -11 2 -60 11 -108 19 -48 9 -98 20 -110 24 -12 5 -26 9
-32 10 -76 13 -160 43 -144 51 18 10 229 90 249 95 8 2 29 9 45 15 58 23 722
267 733 269 1 1 -20 -43 -49 -96z"/>
<path d="M3186 2395 c-129 -52 -210 -160 -223 -298 -6 -68 -21 -108 -55 -148
-13 -15 -34 -40 -48 -56 -37 -43 -115 -100 -166 -119 -44 -17 -56 -29 -31 -33
6 -1 61 -3 120 -5 116 -4 142 1 227 44 l56 27 59 -43 c33 -23 59 -46 58 -50
-2 -7 -122 -61 -153 -70 -8 -2 -76 -24 -150 -50 -74 -25 -142 -48 -150 -50 -8
-2 -58 -15 -110 -30 -52 -14 -129 -34 -170 -44 -70 -18 -87 -21 -157 -35 -16
-3 -36 -8 -46 -11 -10 -3 -32 -7 -50 -10 -18 -2 -43 -6 -57 -9 -216 -43 -407
-60 -690 -60 -180 0 -308 6 -390 19 -14 2 -61 9 -105 16 -44 6 -91 16 -105 20
-14 5 -40 11 -57 14 -35 4 -162 41 -202 57 -16 7 -27 7 -35 -1 -7 -7 -6 -10 4
-10 7 0 11 -3 7 -6 -5 -5 13 -43 60 -124 54 -93 68 -115 73 -120 3 -3 14 -18
24 -35 94 -148 280 -350 451 -488 106 -85 301 -217 321 -217 7 0 14 -3 16 -7
4 -11 139 -77 238 -117 76 -30 232 -81 315 -102 17 -4 32 -8 35 -9 5 -1 57
-12 100 -20 14 -3 50 -7 80 -11 30 -3 75 -8 100 -11 104 -15 346 -7 415 14 11
3 31 7 45 9 38 5 54 9 68 18 7 4 16 6 18 3 3 -3 22 1 42 10 20 8 43 16 51 18
9 2 39 13 66 26 28 12 55 23 60 24 6 2 34 17 63 34 29 17 57 31 62 31 4 0 10
3 12 8 2 4 29 26 60 50 77 58 188 179 210 228 6 13 14 24 18 24 5 0 64 120
101 205 18 44 55 185 64 245 1 8 5 38 9 65 4 28 9 91 12 140 3 50 5 95 5 100
3 49 -15 289 -27 350 -3 17 -7 41 -9 55 -16 122 -70 333 -98 385 -33 60 -101
123 -165 153 -77 36 -198 39 -276 7z m106 -284 c35 -34 27 -84 -16 -105 -65
-31 -122 21 -95 87 20 47 72 56 111 18z m-243 -845 c58 -36 60 -227 4 -330
-32 -57 -127 -139 -207 -179 -42 -22 -82 -40 -89 -41 -6 -2 -19 -6 -27 -9 -22
-9 -101 -29 -135 -34 -16 -2 -47 -8 -68 -13 -47 -10 -316 -10 -382 0 -27 4
-72 11 -99 14 -27 4 -53 9 -57 11 -4 3 -22 7 -40 9 -45 6 -264 73 -300 92 -16
8 -29 12 -29 10 0 -10 -283 124 -288 136 -2 5 -10 8 -19 8 -22 0 -66 38 -70
60 -6 41 22 51 120 44 51 -4 189 -7 307 -8 230 0 289 4 520 35 107 15 131 19
170 29 19 5 49 11 65 14 82 14 290 73 413 116 128 45 181 54 211 36z"/>
<path d="M4773 2275 c-18 -8 -33 -18 -33 -22 0 -9 81 -75 86 -70 2 1 7 21 12
44 14 62 -4 75 -65 48z"/>
<path d="M3800 2232 c1 -4 28 -28 61 -54 75 -59 123 -65 187 -26 41 25 33 35
-34 42 -28 3 -57 8 -65 10 -8 3 -25 8 -39 10 -14 3 -38 8 -55 11 -16 3 -36 8
-42 10 -7 2 -13 1 -13 -3z"/>
<path d="M4516 2202 c-4 -4 -54 -11 -114 -16 -54 -5 -60 -10 -29 -31 49 -32
129 -20 172 25 l29 30 -28 -2 c-15 -1 -29 -4 -30 -6z"/>
<path d="M4635 2099 c-17 -4 -64 -40 -104 -78 l-74 -70 -36 19 c-20 10 -54 35
-76 55 -110 98 -172 96 -284 -11 -36 -35 -74 -64 -85 -64 -15 0 -86 47 -106
70 -3 3 -22 19 -42 34 -34 25 -38 26 -38 10 0 -11 9 -44 20 -74 11 -30 20 -56
20 -57 0 -1 24 -18 52 -38 87 -58 137 -48 239 51 37 35 74 64 82 64 13 0 113
-71 127 -91 16 -22 80 -49 115 -49 50 1 70 12 137 76 73 70 87 76 126 57 18
-9 32 -19 32 -24 0 -5 7 -9 15 -9 8 0 19 17 26 40 11 36 10 42 -7 58 -36 34
-90 46 -139 31z"/>
<path d="M4148 1842 c-20 -9 -61 -40 -92 -69 -75 -70 -86 -72 -142 -29 -26 20
-48 35 -50 33 -2 -1 0 -28 3 -60 7 -66 31 -90 98 -93 51 -2 80 13 145 76 91
89 87 89 212 -22 38 -34 89 -58 122 -58 41 0 77 21 141 83 54 51 67 59 92 56
4 0 15 16 25 36 24 46 12 67 -38 60 -47 -6 -68 -19 -140 -86 -35 -33 -70 -59
-77 -59 -14 0 -36 15 -139 96 -64 50 -109 60 -160 36z"/>
<path d="M4143 1575 c-18 -8 -43 -24 -56 -37 -104 -102 -112 -106 -169 -66
-16 11 -29 18 -29 16 -5 -11 -7 -86 -3 -100 6 -21 54 -38 93 -33 43 6 73 23
128 76 74 71 87 75 131 46 20 -13 53 -39 72 -57 52 -49 75 -61 118 -66 40 -3
60 9 86 56 46 81 77 143 74 146 -3 2 -24 -16 -49 -39 -24 -24 -56 -51 -72 -61
-27 -18 -28 -18 -65 7 -20 14 -55 42 -77 62 -69 63 -120 77 -182 50z"/>
<path d="M4135 1308 c-11 -7 -37 -27 -58 -47 -90 -83 -98 -89 -120 -83 -12 3
-26 11 -30 19 -4 7 -14 13 -22 13 -7 0 -15 6 -18 13 -7 20 -24 -4 -31 -45 -6
-34 -4 -39 30 -64 28 -22 46 -28 81 -27 52 2 69 12 143 82 61 58 80 67 110 51
20 -11 30 -19 82 -62 28 -24 33 -23 57 15 l21 32 -48 43 c-73 68 -146 90 -197
60z"/>
<path d="M4163 1076 c-29 -8 -63 -31 -112 -78 -68 -64 -73 -66 -101 -56 -17 5
-30 14 -30 19 0 5 -5 9 -12 9 -7 0 -24 12 -39 26 -34 32 -55 26 -62 -18 -3
-24 1 -39 15 -55 40 -43 95 -74 138 -77 51 -4 82 15 160 93 33 33 59 51 74 51
30 0 80 58 65 76 -15 18 -51 22 -96 10z"/>
<path d="M3734 765 c-15 -37 -12 -55 9 -55 7 0 34 -18 61 -39 l50 -39 34 26
34 26 -40 36 c-105 93 -125 100 -148 45z"/>
<path d="M3675 530 c-23 -9 -162 -140 -149 -140 20 1 203 129 204 143 0 9 -29
8 -55 -3z"/>
</g>
</svg>
